<svg viewBox="0 0 155 42.83" xmlns="http://www.w3.org/2000/svg"><path d="M0 8.33v21.56l5.3-5.3v-11h14.56v11l5.3 5.29V8.33z" fill="#5cabcb"/><g fill="#003855"><path d="M0 33.48h25.18L12.59 20.9zm23.19 6.44a1.24 1.24 0 00-1.25-1.16 1.29 1.29 0 001-1.17 1.11 1.11 0 00-1.12-1.1h-.14a1.44 1.44 0 00-1.23.67l.26.23a1.07 1.07 0 01.82-.54.7.7 0 01.72.68.27.27 0 010 .09c0 .7-.53 1.07-1.27 1.07l.05.39a1.57 1.57 0 01.37 0 .93.93 0 011 .83V40a1 1 0 01-.8 1h-.14a1.68 1.68 0 01-.92-.3l-.15.33a1.87 1.87 0 001.12.34A1.55 1.55 0 0023.19 40v-.07m-6.47-1.69c0 .77-.42 1.37-1.07 1.37s-1.07-.6-1.07-1.37.43-1.38 1.07-1.38 1.07.6 1.07 1.38m.7 0a1.77 1.77 0 10-1.8 1.76 1.74 1.74 0 001.78-1.71m-7.92 0v.46a1.09 1.09 0 01-.84.44c-.56 0-.92-.4-.92-1.12s.25-1.25.86-1.25.92.8.92 1.47m.71.2c0-1.09-.51-2-1.6-2A1.56 1.56 0 007 38a1.37 1.37 0 001.29 1.45h.09a1.46 1.46 0 001.05-.41 2.06 2.06 0 01-2 1.94v.34a2.7 2.7 0 002.72-2.68v-.25m-6.71 1.46v-.25l-.75-.09v-1.88l.06-1.12-1.44.27V37H2v2.49l-.74.1v.25h2.18zm45.07-3.71c0 1.93-1.33 2.51-3.23 2.51h-2.66v-5h2.66c1.9 0 3.23.57 3.23 2.5m-1.1-8c0 1.61-1.21 1.9-2.83 1.9h-2v-3.86h2c1.62 0 2.83.3 2.83 1.91m1.73 3.63v-.05a4 4 0 003.39-4.21c0-3.16-2.59-4.89-7-4.89H38V42.4h8.42c4.56 0 7.32-2.07 7.32-5.7a4.85 4.85 0 00-4.55-5m16.07.77l.69-4.11a3.31 3.31 0 00-2-.57 3.07 3.07 0 00-2.13.71 3.63 3.63 0 00-1.07 1.88h-.05v-2.21h-4.82V42.4h4.86v-6.86c0-2 .67-2.71 1.12-3.06a2.55 2.55 0 011.56-.43 3.5 3.5 0 011.73.46zm11.36 2.77c0 2-.58 4.1-2.6 4.1s-2.6-2.08-2.6-4.1.57-4.1 2.6-4.1 2.6 2.08 2.6 4.1m5 0c0-4.55-3-7.52-7.57-7.52s-7.58 3-7.58 7.52 3 7.52 7.58 7.52 7.57-3 7.57-7.52m3.08-7.11h-2.34v3.28h2.27v6.34c0 4.21 2.22 5 4.58 5a9.12 9.12 0 003.79-.64l-.69-3.22h-.06a3.25 3.25 0 01-1.38.28 1.16 1.16 0 01-1.32-1 1 1 0 010-.35v-6.4h3.31v-3.25h-3.35v-3.28l-4.86 1.36v1.91zm19.75 14.27h4.87v-9.6c0-3.14-1.79-5-4.78-5a4.66 4.66 0 00-4.3 2.24h-.06v-8.13l-4.86 1.35v19.13h4.87v-7.86c0-1.73.78-3.14 2.41-3.14s1.85 1.41 1.85 2.59zm12.1-9c.12-1.68.87-2.68 2.37-2.68s2.1 1.12 2.1 2.51v.17zm0 2.94h9.31v-1.1c0-4.32-2.36-7.49-6.91-7.49-4.38 0-7.31 2.76-7.31 7.49s2.59 7.55 7.37 7.55 6.39-3 6.8-4l-4.09-1a2.69 2.69 0 01-2.72 1.67c-1.67 0-2.45-1.33-2.45-2.94zm21-3.84l.68-4.11a3.3 3.3 0 00-2-.57 3.05 3.05 0 00-2.13.72 3.44 3.44 0 00-1.07 1.87h-.06v-2.24h-4.81V42.4h4.86v-6.86c0-2 .67-2.71 1.12-3.06a2.55 2.55 0 011.56-.43 3.5 3.5 0 011.73.46h.07zm14-1.4l.2-.09c-.78-1.64-2.91-3.28-6.26-3.28s-6.1 1.47-6.1 4.47 2.7 4 4.77 4.5l1.39.34c1.44.35 2 .75 2 1.44s-.57 1.15-1.73 1.15a3.49 3.49 0 01-3.11-2.13l-3.92 1.15c1 2.36 3.4 4.18 7 4.18s6.33-1.64 6.33-4.75-3-4.15-5-4.67l-1.38-.35c-1.1-.28-1.85-.51-1.85-1.21s.58-1 1.56-1a3.51 3.51 0 012.61 1.25zM54.31 17.23V8.3h-8.88v4h4v3.28A4.74 4.74 0 0146 16.65c-2.48 0-4.53-1.67-4.53-6.33S43.58 4 46 4a3.87 3.87 0 013.27 1.57l4.56-1.37C53.47 3.38 51.49 0 46 0c-5.76 0-9.64 3.86-9.64 10.26s3.59 10.43 9.53 10.43 8.47-3.46 8.47-3.46m12.53-4.12c0 2-.58 4.1-2.6 4.1s-2.6-2.07-2.6-4.1S62.22 9 64.24 9s2.6 2.08 2.6 4.1m5 0c0-4.55-3-7.52-7.57-7.52s-7.58 3-7.58 7.52 3 7.52 7.58 7.52 7.57-3 7.57-7.52m11.73-2.77l.69-4.12a3.33 3.33 0 00-2-.57 3.07 3.07 0 00-2.13.72 3.54 3.54 0 00-1.07 1.87V6h-4.84v14.22h4.86v-6.86c0-1.95.67-2.7 1.12-3a2.47 2.47 0 011.56-.43 3.3 3.3 0 011.73.46zm6.8 2.8C90.35 11.06 91 9 93 9s2.4 2 2.4 3.66v.92c0 1.44-.49 3.55-2.52 3.55s-2.51-2.11-2.51-4m1.07-7.55c-3.63 0-6 3.16-6 7.61s2.24 7.43 5.81 7.43c3.17 0 4.12-2.13 4.12-2.13v2.64l4.81-1.35V.54h-4.87v7.18h-.06a3.9 3.9 0 00-3.83-2.13m20.94 7.52c0 2-.58 4.1-2.6 4.1s-2.6-2.07-2.6-4.1.58-4.1 2.6-4.1 2.6 2.08 2.6 4.1m5 0c0-4.55-3-7.52-7.58-7.52s-7.57 3-7.57 7.52 3 7.52 7.57 7.52 7.58-3 7.58-7.52m15.78 7.11v-9.59c0-3.14-1.78-5-4.78-5a4.78 4.78 0 00-4.36 2.2h-.06V6h-4.8v14.22H124v-7.87c0-1.73.78-3.14 2.42-3.14s1.85 1.42 1.85 2.59v8.41h4.86zm19.34 5.16h.76a1.15 1.15 0 01.37.06.57.57 0 01.24.19.55.55 0 01-.17.75.63.63 0 01-.23.08l.6 1h-.31l-.58-.95h-.42v.95h-.26zm.76.88c.29 0 .43-.11.43-.33s-.14-.33-.43-.33h-.49v.66z"/><path d="M153.26 28.15a1.75 1.75 0 111.74-1.74 1.74 1.74 0 01-1.74 1.74zm0-3.33a1.59 1.59 0 101.59 1.59 1.59 1.59 0 00-1.59-1.59z"/></g></svg>